<?xml version="1.0" encoding="utf-8"?>
<!-- Generator: Adobe Illustrator 16.0.0, SVG Export Plug-In . SVG Version: 6.00 Build 0)  -->
<!DOCTYPE svg PUBLIC "-//W3C//DTD SVG 1.1//EN" "http://www.w3.org/Graphics/SVG/1.1/DTD/svg11.dtd">
<svg version="1.1" id="Layer_1" xmlns="http://www.w3.org/2000/svg" xmlns:xlink="http://www.w3.org/1999/xlink" x="0px" y="0px"
	 width="81.107px" height="28px" viewBox="0 -3.259 81.107 28" enable-background="new 0 -3.259 81.107 28" xml:space="preserve">
<polyline fill="#666666" points="0,18.996 8.91,18.996 8.91,16.07 3.224,16.07 3.224,5.198 0,5.198 0,18.996 "/>
<path fill="#666666" d="M10.195,18.996h3.225V9.294h-3.225V18.996z M11.808,7.971c1.124,0,1.823-0.745,1.823-1.678
	c-0.021-0.952-0.699-1.675-1.803-1.675c-1.103,0-1.825,0.723-1.825,1.675c0,0.933,0.7,1.678,1.782,1.678H11.808z"/>
<path fill="#666666" d="M14.917,18.996h3.225v-5.417c0-0.291,0.021-0.58,0.105-0.787c0.233-0.578,0.765-1.18,1.654-1.18
	c1.168,0,1.635,0.89,1.635,2.195v5.188h3.224v-5.562c0-2.979-1.591-4.366-3.712-4.366c-1.738,0-2.503,0.973-2.928,1.635h0.021V9.294
	h-3.225C14.959,10.204,14.917,18.996,14.917,18.996"/>
<path fill="#666666" d="M29.309,5.198h-3.226v13.798h3.226V15.85l0.806-1.015l2.523,4.16h3.968l-4.242-6.021l3.711-4.1h-3.881
	c0,0-2.651,3.667-2.885,4.102V5.198"/>
<path fill="#666666" d="M45.229,14.949c0.041-0.25,0.104-0.727,0.104-1.268c0-2.513-1.271-5.059-4.624-5.059
	c-3.584,0-5.238,2.835-5.238,5.406c0,3.181,2.015,5.165,5.535,5.165c1.4,0,2.693-0.204,3.754-0.644l-0.424-2.131
	c-0.869,0.288-1.76,0.435-2.862,0.435c-1.507,0-2.822-0.614-2.929-1.938L45.229,14.949 M38.526,12.768
	c0.084-0.827,0.636-2.05,2.014-2.05c1.464,0,1.805,1.305,1.805,2.05H38.526z"/>
<path fill="#666666" d="M53.293,5.198v4.59H53.25c-0.467-0.683-1.442-1.14-2.735-1.14c-2.479,0-4.666,1.985-4.646,5.381
	c0,3.146,1.973,5.193,4.434,5.193c1.336,0,2.609-0.58,3.246-1.697h0.063l0.127,1.471h2.863c-0.043-0.684-0.084-1.863-0.084-3.021
	V5.198H53.293 M53.293,14.505c0,0.248-0.021,0.496-0.063,0.704c-0.188,0.89-0.953,1.513-1.889,1.513
	c-1.336,0-2.203-1.076-2.203-2.771c0-1.593,0.74-2.877,2.227-2.877c0.996,0,1.697,0.684,1.892,1.534
	c0.042,0.187,0.042,0.394,0.042,0.578L53.293,14.505L53.293,14.505z"/>
<path fill="#666666" d="M71.24,10.689v-0.032c-0.008,0.009-0.016,0.022-0.021,0.032H71.24z"/>
<path fill="#666666" d="M79.531,1H61.338c-0.872,0-1.579,0.689-1.579,1.54v18.403c0,0.852,0.707,1.539,1.579,1.539h18.191
	c0.871,0,1.578-0.688,1.578-1.539V2.54C81.107,1.689,80.4,1,79.531,1z M66.23,18.982h-3.229V9.283h3.229V18.982z M64.619,7.958
	h-0.021c-1.082,0-1.781-0.745-1.781-1.676c0-0.951,0.725-1.676,1.824-1.676c1.104,0,1.78,0.725,1.803,1.676
	C66.443,7.213,65.744,7.958,64.619,7.958z M77.857,18.982H74.63v-5.188c0-1.306-0.468-2.194-1.633-2.194
	c-0.896,0-1.422,0.6-1.648,1.18c-0.086,0.205-0.106,0.494-0.106,0.785v5.416h-3.226c0,0,0.043-8.792,0-9.698h3.226v1.374
	c0.429-0.662,1.194-1.602,2.905-1.602c2.121,0,3.711,1.387,3.711,4.364L77.857,18.982L77.857,18.982z"/>
</svg>
