<svg width="32" height="32" viewBox="0 0 32 32" fill="none" xmlns="http://www.w3.org/2000/svg">
<g clip-path="url(#clip0_695_460)">
<path d="M15.2664 32L15.621 25.1997C15.6261 25.0879 15.6061 24.9763 15.5625 24.8732C15.5188 24.7701 15.4526 24.6782 15.3686 24.6041C15.2847 24.53 15.1852 24.4756 15.0775 24.4451C14.9698 24.4145 14.8566 24.4085 14.7463 24.4275L7.97754 25.6173L8.8916 23.0958C8.92868 22.9954 8.93343 22.886 8.90516 22.7829C8.8769 22.6797 8.81704 22.588 8.734 22.5206L1.31908 16.5161L2.9896 15.736C3.10243 15.6827 3.1919 15.59 3.24124 15.4754C3.29057 15.3608 3.29636 15.2321 3.25752 15.1135L1.79187 10.6062L6.06274 11.5124C6.17844 11.5365 6.29893 11.5199 6.40377 11.4653C6.50862 11.4108 6.59136 11.3216 6.63796 11.213L7.46535 9.26667L10.7985 12.8441C10.8747 12.9245 10.975 12.978 11.0841 12.9966C11.1933 13.0152 11.3056 12.998 11.4042 12.9474C11.5027 12.8967 11.5822 12.8156 11.6307 12.716C11.6792 12.6164 11.6941 12.5037 11.6732 12.395L10.0657 4.10538L12.6424 5.59467C12.7029 5.63013 12.77 5.65278 12.8396 5.66124C12.9092 5.66969 12.9798 5.66376 13.0471 5.64381C13.1143 5.62387 13.1767 5.59033 13.2304 5.54528C13.2842 5.50023 13.3281 5.44463 13.3595 5.38191L15.9756 0.244263L18.5917 5.38191C18.623 5.44463 18.667 5.50023 18.7207 5.54528C18.7744 5.59033 18.8368 5.62387 18.9041 5.64381C18.9713 5.66376 19.0419 5.66969 19.1115 5.66124C19.1811 5.65278 19.2482 5.63013 19.3087 5.59467L21.8854 4.10538L20.278 12.395C20.257 12.5037 20.2719 12.6164 20.3204 12.716C20.3689 12.8156 20.4484 12.8967 20.5469 12.9474C20.6455 12.998 20.7578 13.0152 20.867 12.9966C20.9762 12.978 21.0764 12.9245 21.1526 12.8441L24.4858 9.26667L25.3132 11.213C25.3598 11.3216 25.4425 11.4108 25.5474 11.4653C25.6522 11.5199 25.7727 11.5365 25.8884 11.5124L30.1593 10.6062L28.6936 15.1135C28.6548 15.2321 28.6606 15.3608 28.7099 15.4754C28.7592 15.59 28.8487 15.6827 28.9615 15.736L30.6321 16.5161L23.2171 22.5206C23.1341 22.588 23.0742 22.6797 23.046 22.7829C23.0177 22.886 23.0224 22.9954 23.0595 23.0958L23.9736 25.6173L17.2048 24.4275C17.0945 24.4085 16.9813 24.4145 16.8736 24.4451C16.7659 24.4756 16.6664 24.53 16.5825 24.6041C16.4986 24.6782 16.4323 24.7701 16.3887 24.8732C16.345 24.9763 16.325 25.0879 16.3302 25.1997L16.6848 32H15.2664Z" fill="#A02727"/>
</g>
<defs>
<clipPath id="clip0_695_460">
<rect width="32" height="32" fill="white"/>
</clipPath>
</defs>
</svg>
