<svg width="24" height="25" viewBox="0 0 24 25" fill="none" xmlns="http://www.w3.org/2000/svg">
<path d="M18.0522 6H4.45023C3.5151 6 2.75849 6.76511 2.75849 7.70025L2.74998 17.9017C2.74998 18.8369 3.5151 19.602 4.45023 19.602H18.0522C18.9874 19.602 19.7525 18.8369 19.7525 17.9017V7.70025C19.7525 6.76511 18.9874 6 18.0522 6ZM17.7122 9.61303L11.7018 13.3706C11.4298 13.5406 11.0727 13.5406 10.8007 13.3706L4.79028 9.61303C4.57775 9.47701 4.45023 9.24748 4.45023 9.00094C4.45023 8.43136 5.07083 8.09131 5.5554 8.38885L11.2512 11.9509L16.9471 8.38885C17.4316 8.09131 18.0522 8.43136 18.0522 9.00094C18.0522 9.24748 17.9247 9.47701 17.7122 9.61303Z" fill="#FFE600"/>
</svg>
