<svg width="32" height="32" viewBox="0 0 32 32" fill="none" xmlns="http://www.w3.org/2000/svg">
<path d="M20.8 11H11.2C10.54 11 10.006 11.5625 10.006 12.25L10 19.75C10 20.4375 10.54 21 11.2 21H20.8C21.46 21 22 20.4375 22 19.75V12.25C22 11.5625 21.46 11 20.8 11ZM20.56 13.6562L16.318 16.4188C16.126 16.5438 15.874 16.5438 15.682 16.4188L11.44 13.6562C11.29 13.5563 11.2 13.3875 11.2 13.2063C11.2 12.7875 11.638 12.5375 11.98 12.7562L16 15.375L20.02 12.7562C20.362 12.5375 20.8 12.7875 20.8 13.2063C20.8 13.3875 20.71 13.5563 20.56 13.6562Z" fill="#999999"/>
<rect x="0.5" y="0.5" width="31" height="31" rx="15.5" stroke="#999999"/>
</svg>
