<svg width="24" height="25" viewBox="0 0 24 25" fill="none" xmlns="http://www.w3.org/2000/svg">
<path d="M3.60001 20.7335V9.56664H7.21735V20.7335H3.60001Z" fill="#FFE600"/>
<path d="M3.60001 6.02882C3.60001 4.93392 4.40902 4.09998 5.64649 4.09998C6.88396 4.09998 7.64602 4.93392 7.6695 6.02882C7.6695 7.10104 6.88396 7.95899 5.62265 7.95899H5.59954C4.38511 7.95899 3.60001 7.10104 3.60001 6.02882Z" fill="#FFE600"/>
<path d="M13.0705 11.4108C13.5506 10.6505 14.4105 9.56664 16.3311 9.56664C18.7115 9.56664 20.496 11.163 20.496 14.593L20.4959 20.9957H16.8787V15.0214C16.8787 13.5208 16.3552 12.4968 15.0457 12.4968C14.0463 12.4968 13.4511 13.1872 13.1897 13.8539C13.094 14.0928 13.0705 14.4258 13.0705 14.7595V20.996H9.45275C9.45275 20.996 9.50043 10.877 9.45275 9.82915H13.0705V11.4108Z" fill="#FFE600"/>
</svg>
