<svg width="32" height="32" viewBox="0 0 32 32" fill="none" xmlns="http://www.w3.org/2000/svg">
<path d="M10 20.8136V12.8826H12.5691V20.8136H10Z" fill="#999999"/>
<path d="M10 10.3699C10 9.59229 10.5746 9 11.4535 9C12.3324 9 12.8736 9.59229 12.8903 10.3699C12.8903 11.1314 12.3324 11.7408 11.4365 11.7408H11.4201C10.5576 11.7408 10 11.1314 10 10.3699Z" fill="#999999"/>
<path d="M16.7262 14.1924C17.0672 13.6524 17.6779 12.8826 19.042 12.8826C20.7326 12.8826 22 14.0164 22 16.4524L21.9999 20.9998H19.4309V16.7567C19.4309 15.6909 19.0591 14.9637 18.1291 14.9637C17.4193 14.9637 16.9965 15.454 16.8108 15.9275C16.7429 16.0972 16.7262 16.3337 16.7262 16.5707V21H14.1568C14.1568 21 14.1906 13.8132 14.1568 13.069H16.7262V14.1924Z" fill="#999999"/>
<rect x="0.5" y="0.5" width="31" height="31" rx="15.5" stroke="#999999"/>
</svg>
